<?xml version="1.0" encoding="UTF-8" standalone="no"?>
<!DOCTYPE svg PUBLIC "-//W3C//DTD SVG 1.1//EN" "http://www.w3.org/Graphics/SVG/1.1/DTD/svg11.dtd">
<svg width="100%" height="100%" viewBox="0 0 512 512" version="1.1" xmlns="http://www.w3.org/2000/svg" xmlns:xlink="http://www.w3.org/1999/xlink" xml:space="preserve" xmlns:serif="http://www.serif.com/" style="fill-rule:evenodd;clip-rule:evenodd;stroke-linejoin:round;stroke-miterlimit:2;">
    <g transform="matrix(0.844375,0,0,0.844375,-176.356,29.7326)">
        <g transform="matrix(1,0,0,1,87.534,-122.883)">
            <g>
                <path d="M225.203,291.801C273.139,291.801 312.057,330.822 312.057,378.883C312.057,426.945 273.139,465.965 225.203,465.965C177.266,465.965 138.348,426.945 138.348,378.883C138.348,330.822 177.266,291.801 225.203,291.801ZM225.203,300.871C268.146,300.871 303.011,335.827 303.011,378.883C303.011,421.94 268.146,456.896 225.203,456.896C182.259,456.896 147.394,421.94 147.394,378.883C147.394,335.827 182.259,300.871 225.203,300.871Z" style="fill:rgb(252,174,79);stroke:rgb(252,225,138);stroke-width:2.96px;"/>
            </g>
        </g>
        <g transform="matrix(1,0,0,1,485.599,-122.883)">
            <g>
                <path d="M225.203,291.801C273.139,291.801 312.057,330.822 312.057,378.883C312.057,426.945 273.139,465.965 225.203,465.965C177.266,465.965 138.348,426.945 138.348,378.883C138.348,330.822 177.266,291.801 225.203,291.801ZM225.203,300.871C268.146,300.871 303.011,335.827 303.011,378.883C303.011,421.94 268.146,456.896 225.203,456.896C182.259,456.896 147.394,421.94 147.394,378.883C147.394,335.827 182.259,300.871 225.203,300.871Z" style="fill:rgb(252,174,79);fill-opacity:0.77;stroke:rgb(252,225,138);stroke-width:2.96px;"/>
            </g>
        </g>
    </g>
    <g transform="matrix(0.892214,0,0,0.887802,-100.679,-20.0393)">
        <path d="M206.02,199.395C209.781,192.987 295.258,187.857 400,187.857C505.342,187.857 591.198,193.046 594.036,199.503C596.774,200.198 598.802,202.682 598.802,205.635L598.802,392.919C598.802,395.856 596.796,398.327 594.081,399.038C594.099,399.107 594.109,399.175 594.109,399.244C594.109,405.855 507.132,411.222 400,411.222C292.868,411.222 205.891,405.855 205.891,399.244C205.891,399.208 205.894,399.173 205.899,399.137C202.962,398.591 200.736,396.013 200.736,392.919L200.736,205.635C200.736,202.498 203.024,199.892 206.02,199.395Z" style="fill:rgb(252,174,79);stroke:rgb(252,225,138);stroke-width:2.78px;stroke-linecap:round;stroke-miterlimit:1.5;"/>
    </g>
    <g transform="matrix(0.820669,0,0,0.820669,-164.312,35.6459)">
        <g transform="matrix(6.12323e-17,-1,2.11683,1.29619e-16,-141.157,578.591)">
            <path d="M245.351,225.945C238.426,225.945 232.804,262.934 232.804,308.495C232.804,354.056 238.426,391.046 245.351,391.046C243.274,371.784 241.587,341.426 241.587,308.495C241.587,275.565 243.274,245.206 245.351,225.945Z" style="fill:rgb(252,225,138);fill-opacity:0.77;"/>
        </g>
        <g transform="matrix(6.12323e-17,1,-2.11683,1.29619e-16,1164.91,-66.212)">
            <path d="M245.351,225.945C238.426,225.945 232.804,262.934 232.804,308.495C232.804,354.056 238.426,391.046 245.351,391.046C243.274,371.784 241.587,341.426 241.587,308.495C241.587,275.565 243.274,245.206 245.351,225.945Z" style="fill:rgb(252,225,138);fill-opacity:0.84;"/>
        </g>
    </g>
</svg>
